<?xml version="1.0" encoding="UTF-8" standalone="no"?>
<!DOCTYPE svg PUBLIC "-//W3C//DTD SVG 1.1//EN" "http://www.w3.org/Graphics/SVG/1.1/DTD/svg11.dtd">
<svg width="100%" height="100%" viewBox="0 0 1000 1000" version="1.1" xmlns="http://www.w3.org/2000/svg" xmlns:xlink="http://www.w3.org/1999/xlink" xml:space="preserve" xmlns:serif="http://www.serif.com/" style="fill-rule:evenodd;clip-rule:evenodd;stroke-linejoin:round;stroke-miterlimit:2;">
    <g transform="matrix(1.16272,0,0,1.0715,-64.9082,-151.671)">
        <path d="M79.291,313.222C79.291,313.222 90.613,293.863 116.599,271.682C141.065,250.798 178.635,228.904 229.624,215.051C272.345,203.445 324.489,199.592 388.038,207.543C420.08,211.552 455.063,217.99 493.035,229.385C529.82,238.443 563.417,245.23 594.296,248.842C657.418,256.226 708.487,253.567 749.51,245.895C803.339,235.827 839.16,216.773 863.235,200.479C892.469,180.692 903.976,163.596 903.976,163.596C906.255,160.184 905.554,155.406 902.411,152.932C899.267,150.458 894.864,151.219 892.584,154.63L840.304,191.287C817.546,200.964 786.563,207.373 745.875,209.26C707.097,211.058 659.863,207.107 601.732,194.975C572.848,188.948 541.293,181.34 506.965,170.615C472.924,161.667 441.234,155.286 411.614,152.681C355.282,147.726 307.001,153.289 266.039,164.028C181.004,186.321 128.656,232.073 98.592,264.976C77.412,288.157 67.385,305.083 67.385,305.083C65.315,308.648 66.302,313.366 69.588,315.612C72.874,317.858 77.222,316.787 79.291,313.222L79.291,313.222Z" style="fill:white;"/>
    </g>
    <g transform="matrix(0.544715,0,0,1.0715,-14.5431,-74.2436)">
        <path d="M509.747,756.904C423,721.808 326.376,696.523 217.777,694.95C167.204,694.217 123.671,706.872 91.139,730.411C52.072,758.678 29.5,805.509 29.216,851.914C28.913,901.515 54.951,949.731 100.685,975.273C136.455,995.25 182.854,1004.73 239.895,998.751C314.727,990.904 384.865,966.692 448.017,929.316C482.427,908.95 515.052,884.552 545.769,857.119C558.168,863.779 570.341,870.471 582.341,877.092C681.019,931.54 770.436,982.306 853.305,996.532C932.46,1010.12 1013.64,1001 1092.28,939.968C1229.09,833.8 1340.02,647.309 1362.4,511.675C1372.58,450.043 1363.37,398.266 1335.02,366.652C1304.87,333.017 1255.74,316.686 1189.99,319.489C1017.44,326.847 919.488,389.167 887.386,461.129C874.095,490.923 872.081,522.245 880.812,550.89C901.396,618.423 977.713,669.951 1073.82,669.897C1109.88,669.877 1151.87,662.732 1196.5,644.463C1150.44,740.913 1076.87,840.439 991.755,906.49C956.453,933.885 927.287,944.751 891.754,938.651C856.098,932.529 820.8,916.31 782.229,896.614C729.46,869.666 673.506,835.97 612.262,804.337L603.441,799.825C608.956,793.809 614.368,787.696 619.705,781.499C830.579,536.669 927.916,159.335 927.916,159.335C932.21,142.618 908.998,127.273 876.114,125.091C843.23,122.908 813.047,134.708 808.753,151.425L808.753,151.425C808.753,151.425 734.138,442.385 573.018,674.688C553.228,703.221 532.164,730.861 509.747,756.904ZM456.643,812.903C385.366,781.37 306.215,757.349 214.353,756.018C196.866,755.764 188.307,764.996 178.871,774.793C159.013,795.414 149.562,823.981 149.39,852.104C149.218,880.23 157.93,908.151 179.238,926.805C187.998,934.473 198.617,940.7 215.618,938.918C283.57,931.792 342.167,903.009 396.608,863.238C417.505,847.972 437.509,831.081 456.643,812.903ZM1221.86,584.139C1244.92,520.379 1253.48,461.742 1240.69,420.129C1236.55,406.632 1230.52,395.283 1220.54,387.033C1215.54,382.906 1209.4,379.969 1200.04,380.368C1086.49,385.21 1027.68,428.309 1004.25,475.381C992.89,498.187 988.962,522.033 992.405,544.284C996.188,568.741 1006.2,591.363 1027.3,607.214C1040.66,617.255 1056.46,625.203 1078.2,626.356C1118.05,628.469 1165.15,615.659 1221.86,584.139Z" style="fill:white;"/>
    </g>
    <g transform="matrix(1.51873,0,0,1.81268,-373.237,-305.045)">
        <path d="M712.161,352.598C731.49,339.622 744.031,341.744 756.071,347.391C760.218,349.336 764.407,351.467 768.6,353.722C778.592,359.095 788.725,365.153 800.503,367.489C808.943,369.162 817.811,369.328 827.392,367.225C841.545,364.118 856.687,356.244 875.526,339.779C882.738,333.477 891.068,326.347 899.689,317.3C900.817,316.226 900.693,314.587 899.412,313.641C898.13,312.695 896.173,312.799 895.044,313.873C886.393,321.382 878.613,327.779 870.957,332.619C860.762,339.065 851.37,342.742 843.045,345.266C827.651,349.934 816.877,346.986 806.973,343.302C798.43,340.124 790.437,336.019 782.715,331.878C777.774,329.228 772.93,326.579 767.849,324.641C747.657,316.937 725.503,314.983 697.482,339.002C693.004,342.396 692.657,348.198 696.708,351.949C700.759,355.701 707.683,355.992 712.161,352.598Z" style="fill:white;"/>
    </g>
    <g transform="matrix(0.934402,0,0,1.96281,43.2764,-388.325)">
        <path d="M699.8,526.134C770.356,514.169 815.736,527.421 838.047,550.276C853.377,565.979 857.046,585.585 853.553,605.5C848.361,635.101 829.083,666.123 774.507,684.807C757.172,690.741 737.095,695.499 713.922,698.341C693.398,700.858 670.626,701.691 645.854,701.286C643.8,701.225 642.029,701.971 641.902,702.948C641.776,703.926 643.341,704.769 645.395,704.83C670.977,705.913 694.453,705.151 716.168,703.591C741.747,701.753 764.546,698.355 785.497,693.743C843.972,680.87 884.603,658.036 908.134,631.469C914.288,624.52 919.055,617.391 921.935,610.073C932.367,583.561 922.941,556.238 899.85,535.612C861.521,501.377 785.7,481.921 681.96,505.867C670.212,508.211 664.671,514.654 669.594,520.247C674.517,525.84 688.052,528.477 699.8,526.134Z" style="fill:white;"/>
    </g>
</svg>
