<?xml version="1.0" encoding="UTF-8" standalone="no"?>
<!DOCTYPE svg PUBLIC "-//W3C//DTD SVG 1.1//EN" "http://www.w3.org/Graphics/SVG/1.1/DTD/svg11.dtd">
<svg width="100%" height="100%" viewBox="0 0 1000 1000" version="1.1" xmlns="http://www.w3.org/2000/svg" xmlns:xlink="http://www.w3.org/1999/xlink" xml:space="preserve" xmlns:serif="http://www.serif.com/" style="fill-rule:evenodd;clip-rule:evenodd;stroke-linejoin:round;stroke-miterlimit:2;">
    <path d="M75.995,235.039C164.401,93.931 321.318,0 500,0C775.958,0 1000,224.042 1000,500C1000,775.958 775.958,1000 500,1000C313.011,1000 149.859,897.133 64.1,744.961L501.664,744.961C641.462,744.961 754.961,630.717 754.961,490C754.961,349.565 641.916,235.496 502.483,235.041L501.664,235.039L75.995,235.039ZM71.658,242.088C274.146,243.444 500.777,244.961 501.66,244.961C501.66,244.961 502.455,244.962 502.455,244.962C636.46,245.402 745.104,355.031 745.104,490C745.104,625.241 636.022,735.039 501.664,735.039L58.656,735.039C21.226,664.961 0,584.94 0,500C0,405.678 26.174,317.421 71.658,242.088ZM884,556.8C884,578.933 878.667,595 868,605C857.333,615 840,620 816,620L763.6,620L763.6,590L819.6,590C829.733,590 837.2,587.667 842,583C846.8,578.333 849.2,570.933 849.2,560.8L849.2,510C849.2,501.2 846.533,494.2 841.2,489C835.867,483.8 828.8,481.2 820,481.2L767.6,481.2L767.6,340L878,340L878,370L801.6,370L801.6,451.2L818,451.2C838.533,451.2 854.667,456.267 866.4,466.4C878.133,476.533 884,492.267 884,513.6L884,556.8ZM364.8,340L364.8,589.6L454,589.6L454,620L330,620L330,340L364.8,340ZM538.4,408C538.4,386.133 544.4,369.333 556.4,357.6C568.4,345.867 583.467,340 601.6,340L615.6,340C633.733,340 648.8,345.867 660.8,357.6C672.8,369.333 678.8,386.133 678.8,408L678.8,552C678.8,574.667 672.733,591.667 660.6,603C648.467,614.333 630.8,620 607.6,620L561.6,620L561.6,589.6L611.6,589.6C621.467,589.6 629.467,586.667 635.6,580.8C641.733,574.933 644.8,567.867 644.8,559.6L644.8,516L605.6,516C582.667,516 565.733,510.933 554.8,500.8C543.867,490.667 538.4,474.4 538.4,452L538.4,408ZM158.4,620L158.4,370.4L94.8,370.4L94.8,340L256.8,340L256.8,370.4L193.2,370.4L193.2,620L158.4,620ZM644.8,400.4C644.8,391.867 642,384.667 636.4,378.8C630.8,372.933 623.2,370 613.6,370L603.6,370C594,370 586.4,372.933 580.8,378.8C575.2,384.667 572.4,391.867 572.4,400.4L572.4,459.6C572.4,467.867 574.867,474.333 579.8,479C584.733,483.667 592,486 601.6,486L644.8,486L644.8,400.4Z" style="fill:white;"/>
</svg>
