<?xml version="1.0" encoding="UTF-8" standalone="no"?>
<!DOCTYPE svg PUBLIC "-//W3C//DTD SVG 1.1//EN" "http://www.w3.org/Graphics/SVG/1.1/DTD/svg11.dtd">
<svg width="100%" height="100%" viewBox="0 0 1000 1000" version="1.1" xmlns="http://www.w3.org/2000/svg" xmlns:xlink="http://www.w3.org/1999/xlink" xml:space="preserve" xmlns:serif="http://www.serif.com/" style="fill-rule:evenodd;clip-rule:evenodd;stroke-linejoin:round;stroke-miterlimit:2;">
    <path d="M501.616,0.003C776.853,0.896 1000,224.594 1000,500C1000,775.406 776.853,999.104 501.616,999.997L500,1000C499.51,1000 499.019,999.999 498.54,999.998L498.384,999.997L498.284,999.997C497.812,999.995 497.34,999.993 496.885,999.99L496.769,999.99L496.613,999.989C496.127,999.985 495.641,999.981 495.177,999.977L495.155,999.977L495.084,999.976L494.261,999.968L493.692,999.961L493.542,999.959L493.461,999.958C492.995,999.952 492.529,999.945 492.061,999.938L491.93,999.936L491.781,999.933C491.316,999.926 490.852,999.918 490.364,999.909L490.32,999.908L490.207,999.906L489.491,999.892L488.845,999.878L488.711,999.875L488.65,999.873C488.174,999.863 487.698,999.851 487.245,999.84L487.103,999.837L486.964,999.833C486.489,999.821 486.015,999.808 485.561,999.795L485.497,999.793L485.359,999.789L484.731,999.771L483.996,999.748L483.891,999.745L483.852,999.744C483.381,999.729 482.911,999.713 482.437,999.696L482.287,999.691L482.161,999.687C481.693,999.67 481.224,999.653 480.768,999.636L480.685,999.633L480.535,999.627L479.982,999.606L479.139,999.572L479.083,999.57L479.066,999.569C478.586,999.549 478.106,999.528 477.636,999.508L477.483,999.501L477.373,999.496C476.91,999.475 476.448,999.454 475.984,999.432L475.884,999.427L475.731,999.42C475.256,999.397 474.78,999.374 474.289,999.349L473.353,999.301L472.84,999.273L472.69,999.265L472.598,999.26C472.141,999.236 471.685,999.21 471.21,999.183L471.095,999.177L470.946,999.168C470.477,999.141 470.007,999.113 469.526,999.085L469.501,999.083L469.429,999.079L468.632,999.03L468.048,998.993L467.909,998.985L467.837,998.98C467.371,998.95 466.906,998.92 466.444,998.889L466.318,998.881L466.178,998.872C465.715,998.841 465.251,998.809 464.772,998.776L464.729,998.773L464.621,998.765L463.923,998.716L463.257,998.668L463.14,998.659L463.09,998.655C462.615,998.621 462.141,998.585 461.687,998.551L461.553,998.541L461.426,998.531C460.954,998.495 460.482,998.458 460.029,998.422L459.968,998.418L459.843,998.407L459.225,998.358L458.461,998.296L458.384,998.289L458.356,998.287C457.888,998.248 457.42,998.209 456.938,998.168L456.801,998.156L456.69,998.146C456.223,998.106 455.758,998.066 455.296,998.025L455.22,998.018L455.087,998.006L454.539,997.957L453.652,997.876L453.636,997.875C453.16,997.831 452.683,997.786 452.195,997.74L452.061,997.727L451.968,997.718C451.508,997.674 451.049,997.63 450.573,997.583L450.484,997.574L450.353,997.561C449.381,997.465 448.409,997.366 447.456,997.267L447.334,997.254L447.262,997.246C446.794,997.197 446.326,997.147 445.86,997.097L445.761,997.086L445.638,997.073C445.158,997.021 444.679,996.968 444.204,996.916L443.345,996.819L442.72,996.748L442.62,996.737L442.57,996.731C442.095,996.677 441.62,996.622 441.155,996.567L441.052,996.555L440.94,996.542C440.468,996.486 439.995,996.43 439.513,996.371L439.485,996.368L439.417,996.36L438.703,996.273L437.982,996.184L437.919,996.176L437.893,996.173C437.41,996.113 436.928,996.052 436.459,995.993L436.355,995.98L436.26,995.967C435.78,995.906 435.3,995.844 434.834,995.784L434.793,995.778L434.712,995.768L434.073,995.684L433.235,995.573L433.23,995.572C432.741,995.507 432.252,995.441 431.769,995.374L431.672,995.361L431.596,995.351C431.122,995.286 430.649,995.22 430.164,995.152L430.114,995.145L430.03,995.134C429.048,994.996 428.067,994.855 427.085,994.711L427.003,994.699L426.947,994.691C426.468,994.621 425.988,994.55 425.505,994.478L425.449,994.469L425.371,994.457C424.376,994.308 423.383,994.156 422.404,994.004L422.347,993.995L422.315,993.99C421.829,993.914 421.344,993.837 420.855,993.759L420.799,993.75L420.731,993.739C419.725,993.579 418.72,993.415 417.722,993.25L417.698,993.246C417.207,993.165 416.715,993.082 416.213,992.997L416.162,992.989L416.109,992.98C414.603,992.725 413.099,992.463 411.579,992.192L411.54,992.185L411.505,992.178C409.984,991.906 408.465,991.627 406.951,991.342L406.918,991.336C284.254,968.201 177.362,900.213 103.96,805.097L103.931,805.06L103.918,805.043C103.65,804.695 103.382,804.347 103.115,803.999L103.015,803.869L102.916,803.74C102.674,803.423 102.432,803.107 102.19,802.79L102.103,802.676L101.914,802.427L101.687,802.13L101.431,801.791L101.194,801.48L100.894,801.082L100.613,800.711L100.534,800.606C76.893,769.248 56.856,735.028 41.041,698.564L40.513,697.344L39.914,695.945L39.801,695.68C26.069,663.464 15.623,629.513 8.887,594.252L8.662,593.068L8.592,592.695L8.585,592.66L8.567,592.563L8.375,591.534L8.302,591.136L8.291,591.078L8.266,590.942L8.093,589.998L8.017,589.575L8.002,589.495L7.972,589.331L7.815,588.46L7.736,588.013L7.718,587.91L7.685,587.726L7.543,586.921L7.46,586.448L7.438,586.323L7.404,586.127L7.275,585.38L7.189,584.882L7.164,584.735L7.13,584.531L7.011,583.838L6.923,583.313L6.895,583.145L6.86,582.938L6.753,582.294L6.662,581.743L6.631,581.553L6.597,581.346L6.499,580.748L6.406,580.17L6.371,579.96L6.339,579.756L6.25,579.201L6.154,578.595L6.117,578.365L6.086,578.166L6.005,577.653L5.907,577.018L5.868,576.768L5.839,576.577L5.766,576.102L5.665,575.438L5.624,575.17L5.597,574.988L5.531,574.551L5.428,573.855L5.385,573.57L5.36,573.398L5.301,572.997L5.195,572.27L5.151,571.968L5.128,571.809L5.075,571.442L4.967,570.681L4.922,570.365L4.902,570.219L4.855,569.886L4.744,569.089L4.698,568.76L4.68,568.628L4.639,568.328L4.526,567.491L4.48,567.153L4.464,567.037L4.428,566.768L4.311,565.888L4.266,565.545L4.253,565.445L4.222,565.207L4.102,564.276L4.057,563.935L4.047,563.852L4.02,563.645L3.896,562.653L3.854,562.324L3.846,562.258L3.824,562.081L3.693,561.013L3.656,560.711L3.65,560.663L3.632,560.515L3.492,559.342L3.463,559.097L3.459,559.067L3.445,558.948L3.289,557.606L3.275,557.481L3.274,557.47C3.027,555.322 2.795,553.171 2.576,551.018L2.574,551.001L2.552,550.778L2.426,549.516L2.416,549.419L2.412,549.377L2.375,548.997L2.273,547.939L2.262,547.819L2.255,547.752L2.213,547.299L2.125,546.36L2.112,546.217L2.104,546.125L2.059,545.636L1.982,544.78L1.967,544.614L1.957,544.497L1.913,543.991L1.844,543.199L1.828,543.009L1.816,542.868L1.773,542.356L1.711,541.616L1.693,541.403L1.68,541.236L1.639,540.726L1.582,540.032L1.564,539.795L1.549,539.604L1.51,539.101L1.459,538.447L1.44,538.186L1.423,537.969L1.387,537.477L1.341,536.86L1.32,536.575L1.303,536.334L1.269,535.855L1.227,535.271L1.206,534.963L1.188,534.697L1.156,534.233L1.119,533.682L1.097,533.349L1.078,533.058L1.049,532.612L1.015,532.091L0.993,531.734L0.973,531.418L0.947,530.99L0.917,530.499L0.894,530.117L0.874,529.777L0.85,529.367L0.823,528.905L0.801,528.499L0.78,528.134L0.759,527.745L0.735,527.31L0.712,526.879L0.691,526.49L0.672,526.121L0.651,525.714L0.629,525.257L0.608,524.845L0.591,524.496L0.573,524.116L0.55,523.634L0.53,523.198L0.515,522.871L0.499,522.517L0.477,522.009L0.457,521.55L0.445,521.245L0.43,520.917L0.409,520.383L0.39,519.9L0.379,519.617L0.367,519.315L0.347,518.755L0.328,518.249L0.319,517.989L0.309,517.713L0.289,517.124L0.271,516.596L0.263,516.359L0.255,516.109L0.237,515.492L0.219,514.943L0.214,514.729L0.207,514.503L0.189,513.857L0.174,513.288L0.169,513.097L0.163,512.897L0.147,512.22L0.133,511.631L0.129,511.464L0.125,511.289L0.111,510.579L0.098,509.974L0.095,509.83L0.092,509.68L0.079,508.934L0.068,508.315L0.066,508.194L0.064,508.07L0.053,507.283L0.043,506.654L0.042,506.558L0.041,506.458L0.032,505.62L0.024,504.993L0.024,504.92L0.023,504.845L0.016,503.936L0.011,503.33L0.011,503.281L0.01,503.231L0.005,502.188L0.003,501.665L0.003,501.641C0.001,501.104 0,500.552 0,500C0,499.448 0.001,498.896 0.003,498.359L0.003,498.335L0.005,497.812L0.01,496.769L0.011,496.719L0.011,496.67L0.016,496.064L0.023,495.155L0.024,495.08L0.024,495.007L0.032,494.38L0.041,493.542L0.042,493.442L0.043,493.346L0.053,492.717L0.064,491.93L0.066,491.806L0.068,491.685L0.079,491.066L0.092,490.32L0.095,490.17L0.098,490.026L0.111,489.421L0.125,488.711L0.129,488.536L0.133,488.369L0.147,487.78L0.163,487.103L0.169,486.903L0.174,486.712L0.189,486.143L0.207,485.497L0.214,485.271L0.219,485.057L0.237,484.508L0.255,483.891L0.263,483.641L0.271,483.404L0.289,482.876L0.309,482.287L0.319,482.011L0.328,481.751L0.347,481.245L0.367,480.685L0.379,480.383L0.39,480.1L0.409,479.617L0.43,479.083L0.445,478.755L0.457,478.45L0.477,477.991L0.499,477.483L0.515,477.129L0.53,476.802L0.55,476.366L0.573,475.884L0.591,475.504L0.608,475.155L0.629,474.743L0.651,474.286L0.672,473.879L0.691,473.51L0.712,473.121L0.735,472.69L0.759,472.255L0.78,471.866L0.801,471.501L0.823,471.095L0.85,470.633L0.874,470.223L0.894,469.883L0.917,469.501L0.947,469.01L0.973,468.582L0.993,468.266L1.015,467.909L1.049,467.388L1.078,466.942L1.097,466.651L1.119,466.318L1.156,465.767L1.188,465.303L1.206,465.037L1.227,464.729L1.269,464.145L1.303,463.666L1.32,463.425L1.341,463.14L1.387,462.523L1.423,462.031L1.44,461.814L1.459,461.553L1.51,460.899L1.549,460.396L1.564,460.205L1.582,459.968L1.639,459.274L1.68,458.764L1.693,458.597L1.711,458.384L1.773,457.644L1.816,457.132L1.828,456.991L1.844,456.801L1.913,456.009L1.957,455.503L1.967,455.386L1.982,455.22L2.059,454.364L2.104,453.875L2.112,453.783L2.125,453.64L2.213,452.701L2.255,452.248L2.262,452.181L2.273,452.061L2.375,451.003L2.412,450.623L2.416,450.581L2.426,450.484L2.552,449.222L2.574,448.999L2.576,448.982C2.794,446.84 3.025,444.702 3.274,442.53L3.275,442.519L3.289,442.394L3.445,441.052L3.459,440.933L3.463,440.903L3.492,440.658L3.632,439.485L3.65,439.337L3.656,439.289L3.693,438.987L3.824,437.919L3.846,437.742L3.854,437.676L3.896,437.346L4.02,436.355L4.047,436.148L4.057,436.065L4.102,435.724L4.222,434.793L4.253,434.555L4.266,434.455L4.311,434.112L4.428,433.232L4.464,432.963L4.48,432.847L4.526,432.509L4.639,431.672L4.68,431.372L4.698,431.24L4.744,430.911L4.855,430.114L4.902,429.781L4.922,429.635L4.967,429.319L5.075,428.558L5.128,428.191L5.151,428.032L5.195,427.73L5.301,427.003L5.36,426.602L5.385,426.43L5.428,426.144L5.531,425.449L5.597,425.012L5.624,424.83L5.665,424.562L5.766,423.898L5.839,423.423L5.868,423.232L5.907,422.982L6.005,422.347L6.086,421.834L6.117,421.635L6.154,421.405L6.25,420.799L6.339,420.244L6.371,420.04L6.406,419.83L6.499,419.252L6.597,418.654L6.631,418.447L6.662,418.257L6.753,417.706L6.86,417.062L6.895,416.855L6.923,416.687L7.011,416.162L7.13,415.469L7.164,415.265L7.189,415.118L7.275,414.62L7.404,413.873L7.438,413.677L7.46,413.552L7.543,413.079L7.685,412.274L7.718,412.09L7.736,411.987L7.815,411.54L7.972,410.669L8.002,410.505L8.017,410.424L8.093,410.002L8.266,409.058L8.291,408.922L8.302,408.864L8.375,408.466L8.567,407.437L8.585,407.34L8.592,407.305L8.662,406.932L8.877,405.802L8.887,405.748C15.623,370.482 26.069,336.526 39.801,304.32L39.914,304.055L40.417,302.881L40.513,302.656L41.039,301.441L41.117,301.26L41.666,300C57.277,264.308 76.938,230.785 100.078,200C100.078,200 100.289,199.72 100.289,199.72L100.534,199.394L100.613,199.289L100.894,198.918L101.194,198.52L101.431,198.209L101.687,197.87L101.914,197.573L102.103,197.324L102.19,197.21C102.428,196.898 102.666,196.587 102.916,196.26L103.015,196.131L103.115,196.001C103.38,195.656 103.645,195.311 103.918,194.957L103.931,194.94L103.96,194.903C177.36,99.791 284.25,31.803 406.918,8.664L406.951,8.658C408.467,8.372 409.987,8.093 411.505,7.822L411.54,7.815L411.579,7.808C413.086,7.539 414.595,7.277 416.109,7.02L416.162,7.011L416.213,7.003C416.709,6.919 417.205,6.836 417.698,6.754L417.722,6.75C418.723,6.584 419.726,6.421 420.731,6.261L420.799,6.25L420.855,6.241C421.342,6.163 421.829,6.086 422.315,6.01L422.347,6.005L422.404,5.996C423.392,5.842 424.381,5.691 425.371,5.543L425.449,5.531L425.505,5.522C425.986,5.45 426.467,5.379 426.947,5.309L427.003,5.301L427.085,5.289C428.066,5.145 429.048,5.004 430.03,4.866L430.114,4.855L430.164,4.848C430.641,4.781 431.118,4.715 431.596,4.649L431.672,4.639L431.769,4.626C432.255,4.559 432.742,4.493 433.23,4.428L434.073,4.316L434.712,4.232L434.793,4.222L434.834,4.216C435.309,4.154 435.785,4.093 436.26,4.033L436.355,4.02L436.459,4.007C436.937,3.946 437.416,3.886 437.893,3.827L437.919,3.824L437.982,3.816L438.703,3.727L439.417,3.64L439.485,3.632L439.513,3.629C439.99,3.571 440.466,3.514 440.94,3.458L441.052,3.445L441.155,3.433C441.626,3.378 442.097,3.323 442.57,3.269L442.62,3.263L442.72,3.252L443.345,3.181L444.15,3.09L444.204,3.084C444.682,3.031 445.16,2.979 445.638,2.927L445.761,2.914L445.86,2.903C446.327,2.853 446.795,2.803 447.262,2.754L447.334,2.746L447.456,2.733C448.421,2.632 449.387,2.534 450.353,2.439L450.484,2.426L450.573,2.417C451.038,2.371 451.504,2.326 451.968,2.282L452.061,2.273L452.195,2.26C452.675,2.215 453.156,2.17 453.636,2.125L454.539,2.043L455.087,1.994L455.22,1.982L455.296,1.975C455.76,1.934 456.224,1.894 456.69,1.854L456.801,1.844L456.938,1.832C457.411,1.792 457.884,1.752 458.356,1.713L458.384,1.711L458.461,1.704L459.225,1.642L459.843,1.593L459.968,1.582L460.029,1.578C460.495,1.541 460.96,1.505 461.426,1.469L461.553,1.459L461.687,1.449C462.155,1.414 462.622,1.379 463.09,1.345L463.14,1.341L463.257,1.332L463.923,1.284L464.621,1.235L464.729,1.227L464.772,1.224C465.241,1.192 465.709,1.16 466.178,1.128L466.318,1.119L466.444,1.111C466.909,1.08 467.373,1.05 467.837,1.02L467.909,1.015L468.048,1.007L468.632,0.97L469.429,0.921L469.501,0.917L469.526,0.915C469.999,0.887 470.473,0.859 470.946,0.832L471.095,0.823L471.21,0.817C471.672,0.791 472.135,0.765 472.598,0.74L472.69,0.735L472.84,0.727L473.353,0.699L474.275,0.652L474.289,0.651C474.77,0.627 475.25,0.603 475.731,0.58L475.884,0.573L475.984,0.568C476.446,0.546 476.909,0.525 477.373,0.504L477.483,0.499L477.636,0.492C478.112,0.471 478.589,0.451 479.066,0.431L479.083,0.43L479.139,0.428L479.982,0.394L480.535,0.373L480.685,0.367L480.768,0.364C481.232,0.346 481.697,0.329 482.161,0.313L482.287,0.309L482.437,0.304C482.908,0.287 483.38,0.272 483.852,0.256L483.891,0.255L483.996,0.252L484.731,0.229L485.359,0.211L485.497,0.207L485.561,0.205C486.029,0.192 486.496,0.179 486.964,0.167L487.103,0.163L487.245,0.16C487.713,0.148 488.181,0.137 488.65,0.127L488.711,0.125L488.845,0.122L489.491,0.108L490.207,0.094L490.32,0.092L490.364,0.091C490.836,0.082 491.308,0.074 491.781,0.067L491.93,0.064L492.061,0.062C492.528,0.055 492.994,0.048 493.461,0.042L493.542,0.041L493.692,0.039L494.261,0.032L495.084,0.024L495.155,0.023L495.177,0.023C495.657,0.018 496.136,0.014 496.613,0.011L496.769,0.01L496.885,0.01C497.347,0.007 497.815,0.005 498.284,0.003L498.384,0.003L498.54,0.002C499.019,0.001 499.51,0 500,0L501.616,0.003ZM105.363,200L500,200L500.971,200.002C666.112,200.538 800,334.757 800,500C800,665.575 665.575,800 500,800L105.363,800C81.968,769.287 62.068,735.75 46.271,700L500,700C610.383,700 700,610.383 700,500C700,389.847 610.756,300.374 500.674,300.001C500.674,300.001 499.96,300 499.96,300L46.271,300C62.062,264.264 81.96,230.727 105.363,200ZM131.546,587.491L131.546,431.507L91.8,431.507L91.8,412.509L193.04,412.509L193.04,431.507L153.294,431.507L153.294,587.491L131.546,587.491ZM585,547.995C585,561.827 581.667,571.868 575.001,578.117C568.335,584.366 557.503,587.491 542.504,587.491L509.758,587.491L509.758,568.743L544.754,568.743C551.087,568.743 555.753,567.285 558.753,564.368C561.752,561.452 563.252,556.828 563.252,550.495L563.252,518.748C563.252,513.249 561.586,508.874 558.253,505.624C554.92,502.375 550.503,500.75 545.004,500.75L512.257,500.75L512.257,412.509L581.25,412.509L581.25,431.257L533.505,431.257L533.505,482.002L543.754,482.002C556.586,482.002 566.669,485.168 574.001,491.501C581.334,497.834 585,507.666 585,520.998L585,547.995ZM260.533,412.509L260.533,568.493L316.277,568.493L316.277,587.491L238.785,587.491L238.785,412.509L260.533,412.509ZM369.022,455.005C369.022,441.339 372.772,430.84 380.271,423.508C387.77,416.175 397.186,412.509 408.518,412.509L417.267,412.509C428.599,412.509 438.015,416.175 445.514,423.508C453.013,430.84 456.763,441.339 456.763,455.005L456.763,544.995C456.763,559.161 452.972,569.785 445.389,576.867C437.807,583.95 426.766,587.491 412.268,587.491L383.52,587.491L383.52,568.493L414.767,568.493C420.933,568.493 425.933,566.66 429.766,562.994C433.599,559.327 435.515,554.911 435.515,549.745L435.515,522.498L411.018,522.498C396.686,522.498 386.103,519.331 379.271,512.999C372.438,506.666 369.022,496.5 369.022,482.502L369.022,455.005ZM435.515,450.255C435.515,444.922 433.765,440.423 430.266,436.756C426.766,433.09 422.017,431.257 416.017,431.257L409.768,431.257C403.768,431.257 399.019,433.09 395.519,436.756C392.02,440.423 390.27,444.922 390.27,450.255L390.27,487.251C390.27,492.417 391.811,496.459 394.894,499.375C397.977,502.291 402.518,503.75 408.518,503.75L435.515,503.75L435.515,450.255Z" style="fill:white;"/>
</svg>
